<svg width="25" height="24" viewBox="0 0 25 24" fill="none" xmlns="http://www.w3.org/2000/svg">
<path d="M21.25 9.00195C21.25 9.00195 21.25 9.85245 20.9013 10.9707L17.0148 7.08495C16.804 6.87391 16.518 6.75522 16.2198 6.75495H12.7675C12.5159 6.75513 12.2717 6.83963 12.0738 6.99495L10.711 8.06145C10.6175 8.13473 10.5104 8.18885 10.396 8.22071C10.2815 8.25257 10.1619 8.26155 10.0439 8.24713C9.92601 8.23271 9.81208 8.19517 9.70866 8.13667C9.60524 8.07817 9.51438 7.99986 9.44126 7.9062C9.29353 7.7168 9.22692 7.47655 9.25602 7.23812C9.28512 6.99968 9.40756 6.78251 9.59651 6.6342L14.2465 3.00195H15.25C16.8413 3.00195 18.3674 3.63409 19.4927 4.75931C20.6179 5.88453 21.25 7.41065 21.25 9.00195ZM5.78801 11.4995C5.71298 11.4242 5.62385 11.3646 5.52572 11.3238C5.42758 11.2831 5.32238 11.2622 5.21614 11.2622C5.10989 11.2622 5.00469 11.2831 4.90656 11.3238C4.80843 11.3646 4.7193 11.4242 4.64426 11.4995L3.48626 12.662C3.33449 12.8143 3.24927 13.0206 3.24927 13.2357C3.24927 13.4508 3.33449 13.6571 3.48626 13.8095C3.5613 13.8847 3.65043 13.9444 3.74856 13.9851C3.84669 14.0258 3.95189 14.0467 4.05814 14.0467C4.16438 14.0467 4.26958 14.0258 4.36772 13.9851C4.46585 13.9444 4.55498 13.8847 4.63001 13.8095L5.78801 12.647C5.93975 12.4947 6.02495 12.2885 6.02495 12.0736C6.02495 11.8586 5.93975 11.6524 5.78801 11.5002M6.98501 13.067C7.06001 12.9915 7.14918 12.9317 7.24738 12.8908C7.34559 12.85 7.4509 12.829 7.55726 12.829C7.66363 12.829 7.76894 12.85 7.86715 12.8908C7.96535 12.9317 8.05452 12.9915 8.12951 13.067C8.28106 13.2193 8.36614 13.4254 8.36614 13.6403C8.36614 13.8552 8.28106 14.0614 8.12951 14.2137L6.97001 15.374C6.89503 15.4493 6.80591 15.509 6.70778 15.5498C6.60964 15.5906 6.50441 15.6116 6.39814 15.6116C6.29187 15.6116 6.18664 15.5906 6.0885 15.5498C5.99036 15.509 5.90125 15.4493 5.82626 15.374C5.67471 15.2216 5.58964 15.0155 5.58964 14.8006C5.58964 14.5857 5.67471 14.3795 5.82626 14.2272L6.98501 13.067ZM10.0728 15.0147C9.99773 14.9395 9.9086 14.8798 9.81047 14.8391C9.71233 14.7984 9.60713 14.7774 9.50089 14.7774C9.39465 14.7774 9.28944 14.7984 9.19131 14.8391C9.09318 14.8798 9.00405 14.9395 8.92901 15.0147L7.77101 16.1757C7.61905 16.328 7.53371 16.5343 7.53371 16.7495C7.53371 16.9646 7.61905 17.1709 7.77101 17.3232C7.846 17.3985 7.93511 17.4583 8.03325 17.499C8.13139 17.5398 8.23662 17.5608 8.34289 17.5608C8.44916 17.5608 8.55439 17.5398 8.65253 17.499C8.75066 17.4583 8.83978 17.3985 8.91476 17.3232L10.0728 16.1615C10.2245 16.0091 10.3098 15.8028 10.3098 15.5877C10.3098 15.3726 10.2245 15.1671 10.0728 15.0147ZM12.0153 16.961C11.9403 16.8855 11.8511 16.8257 11.7529 16.7848C11.6547 16.744 11.5494 16.723 11.443 16.723C11.3367 16.723 11.2313 16.744 11.1331 16.7848C11.0349 16.8257 10.9458 16.8855 10.8708 16.961L9.71276 18.1227C9.56121 18.275 9.47614 18.4812 9.47614 18.6961C9.47614 18.911 9.56121 19.1171 9.71276 19.2695C9.78775 19.3448 9.87686 19.4045 9.975 19.4453C10.0731 19.4861 10.1784 19.5071 10.2846 19.5071C10.3909 19.5071 10.4961 19.4861 10.5943 19.4453C10.6924 19.4045 10.7815 19.3448 10.8565 19.2695L12.0145 18.1077C12.1662 17.9555 12.2514 17.7493 12.2514 17.5343C12.2514 17.3194 12.1662 17.1132 12.0145 16.961M11.5293 3.22095C11.1342 3.10426 10.7275 3.03133 10.3165 3.00345L10.249 3.00195H10C8.40872 3.00195 6.88259 3.63409 5.75737 4.75931C4.63216 5.88453 4.00001 7.41065 4.00001 9.00195V10.5672C4.37076 10.2655 4.84036 10.1124 5.31767 10.1375C5.79497 10.1626 6.24593 10.3641 6.58301 10.703C6.87776 10.9992 7.05776 11.3675 7.12226 11.7515C7.4068 11.6863 7.7024 11.6863 7.98692 11.7516C8.27144 11.8168 8.5375 11.9456 8.76519 12.1283C8.99288 12.311 9.17629 12.5428 9.30168 12.8064C9.42707 13.07 9.4912 13.3586 9.48926 13.6505C9.74514 13.6493 9.99871 13.6988 10.2353 13.7963C10.4719 13.8937 10.6868 14.0372 10.8676 14.2182C11.0484 14.3993 11.1915 14.6144 11.2886 14.8512C11.3857 15.0879 11.4349 15.3416 11.4333 15.5975C11.6885 15.5962 11.9415 15.6457 12.1775 15.743C12.4135 15.8404 12.6278 15.9836 12.808 16.1645C13.1703 16.5285 13.3737 17.0211 13.3737 17.5347C13.3737 18.0483 13.1703 18.5409 12.808 18.905L12.6393 19.0745L13.5948 20.0225C13.7463 20.1715 13.9503 20.2551 14.1629 20.2551C14.3755 20.2551 14.5795 20.1715 14.731 20.0225C15.0415 19.715 15.0423 19.217 14.7325 18.9087C14.6261 18.8032 14.566 18.6597 14.5653 18.5098C14.5647 18.36 14.6236 18.216 14.7291 18.1096C14.8347 18.0032 14.9781 17.943 15.128 17.9424C15.2779 17.9418 15.4218 18.0007 15.5283 18.1062C15.6798 18.2553 15.8838 18.3389 16.0964 18.3389C16.309 18.3389 16.513 18.2553 16.6645 18.1062C16.7383 18.0334 16.7968 17.9466 16.8368 17.851C16.8768 17.7554 16.8974 17.6528 16.8975 17.5491C16.8976 17.4455 16.8771 17.3428 16.8372 17.2471C16.7974 17.1515 16.7389 17.0646 16.6653 16.9917C16.5656 16.8848 16.5111 16.7435 16.5133 16.5973C16.5156 16.4512 16.5743 16.3116 16.6772 16.2078C16.7801 16.104 16.9192 16.0441 17.0654 16.0406C17.2115 16.0371 17.3533 16.0904 17.461 16.1892C17.6127 16.3379 17.8167 16.421 18.0291 16.4207C18.2415 16.4205 18.4452 16.3368 18.5965 16.1877C18.9145 15.8727 18.913 15.3612 18.6093 15.059L18.607 15.0575L16.9173 13.367C16.8179 13.2603 16.7638 13.1193 16.7664 12.9736C16.769 12.8278 16.828 12.6888 16.931 12.5857C17.0341 12.4827 17.1731 12.4236 17.3189 12.4211C17.4646 12.4185 17.6056 12.4726 17.7123 12.572L19.6893 14.5467C20.0845 14.939 20.7363 14.9427 21.079 14.603C21.4203 14.2647 21.4173 13.6227 21.0258 13.2335L21.0243 13.232L16.0473 8.2557H12.8973L11.6358 9.2427C11.3871 9.43729 11.1025 9.58097 10.7983 9.66555C10.4941 9.75013 10.1762 9.77395 9.86281 9.73564C9.54939 9.69734 9.24659 9.59766 8.97171 9.4423C8.69683 9.28694 8.45524 9.07895 8.26076 8.8302C7.86781 8.32744 7.69053 7.68923 7.76788 7.05583C7.84523 6.42242 8.17087 5.84564 8.67326 5.4522L11.5293 3.22095Z" fill="black"/>
</svg>
