<svg width="25" height="24" viewBox="0 0 25 24" fill="none" xmlns="http://www.w3.org/2000/svg">
<path fill-rule="evenodd" clip-rule="evenodd" d="M15.4249 5.08083H7.40385C6.97751 5.0807 6.56146 5.21178 6.21219 5.45627C5.86292 5.70076 5.59735 6.04681 5.45154 6.44744L10.8654 9.89237C10.8701 9.42278 10.9704 8.95908 11.16 8.52946C11.3496 8.09985 11.6247 7.71332 11.9685 7.39338C12.3122 7.07345 12.7175 6.82681 13.1596 6.66848C13.6017 6.51014 14.0714 6.44342 14.5402 6.47237L15.4249 5.08083ZM16.5118 7.24083C16.9976 7.63613 17.367 8.15575 17.5808 8.74437C17.7947 9.333 17.8449 9.96859 17.7261 10.5835C17.6073 11.1984 17.324 11.7695 16.9064 12.2362C16.4887 12.7028 15.9523 13.0475 15.3543 13.2334C15.3609 13.2849 15.3646 13.3367 15.3654 13.3885V16.1578C15.3654 16.4332 15.256 16.6973 15.0612 16.8921C14.8665 17.0868 14.6023 17.1962 14.3269 17.1962C14.0515 17.1962 13.7874 17.0868 13.5926 16.8921C13.3979 16.6973 13.2885 16.4332 13.2885 16.1578V13.3885C13.2885 13.3359 13.2922 13.2842 13.2995 13.2334C13.1349 13.1823 12.9743 13.1189 12.8191 13.0438L9.07508 18.927H17.0962C17.647 18.927 18.1753 18.7082 18.5648 18.3187C18.9543 17.9292 19.1731 17.4009 19.1731 16.8501V7.15775C19.1732 6.73141 19.0421 6.31536 18.7976 5.96609C18.5531 5.61682 18.2071 5.35125 17.8065 5.20544L16.5118 7.24083ZM6.69354 18.8024L10.8169 12.3224L5.32692 8.82898V16.8501C5.32692 17.7473 5.896 18.5116 6.69354 18.8024ZM3.25 7.15775C3.25 6.05608 3.68764 4.99954 4.46663 4.22054C5.24563 3.44154 6.30218 3.00391 7.40385 3.00391H17.0962C18.1978 3.00391 19.2544 3.44154 20.0334 4.22054C20.8124 4.99954 21.25 6.05608 21.25 7.15775V16.8501C21.25 17.9517 20.8124 19.0083 20.0334 19.7873C19.2544 20.5663 18.1978 21.0039 17.0962 21.0039H7.40385C6.30218 21.0039 5.24563 20.5663 4.46663 19.7873C3.68764 19.0083 3.25 17.9517 3.25 16.8501V7.15775ZM15.7115 9.92698C15.7115 10.2942 15.5657 10.6464 15.306 10.9061C15.0463 11.1657 14.6941 11.3116 14.3269 11.3116C13.9597 11.3116 13.6075 11.1657 13.3479 10.9061C13.0882 10.6464 12.9423 10.2942 12.9423 9.92698C12.9423 9.55976 13.0882 9.20758 13.3479 8.94791C13.6075 8.68825 13.9597 8.54237 14.3269 8.54237C14.6941 8.54237 15.0463 8.68825 15.306 8.94791C15.5657 9.20758 15.7115 9.55976 15.7115 9.92698Z" fill="black"/>
</svg>
