<svg width="25" height="24" viewBox="0 0 25 24" fill="none" xmlns="http://www.w3.org/2000/svg">
<path d="M3.25 5.62891C3.25 5.33054 3.36853 5.04439 3.5795 4.83341C3.79048 4.62243 4.07663 4.50391 4.375 4.50391H15.625C15.9234 4.50391 16.2095 4.62243 16.4205 4.83341C16.6315 5.04439 16.75 5.33054 16.75 5.62891C16.75 5.92727 16.6315 6.21342 16.4205 6.4244C16.2095 6.63538 15.9234 6.75391 15.625 6.75391H4.375C4.07663 6.75391 3.79048 6.63538 3.5795 6.4244C3.36853 6.21342 3.25 5.92727 3.25 5.62891ZM3.25 17.6289C3.25 17.3305 3.36853 17.0444 3.5795 16.8334C3.79048 16.6224 4.07663 16.5039 4.375 16.5039H14.125C14.4234 16.5039 14.7095 16.6224 14.9205 16.8334C15.1315 17.0444 15.25 17.3305 15.25 17.6289C15.25 17.9273 15.1315 18.2134 14.9205 18.4244C14.7095 18.6354 14.4234 18.7539 14.125 18.7539H4.375C4.07663 18.7539 3.79048 18.6354 3.5795 18.4244C3.36853 18.2134 3.25 17.9273 3.25 17.6289ZM4.375 10.5039C4.07663 10.5039 3.79048 10.6224 3.5795 10.8334C3.36853 11.0444 3.25 11.3305 3.25 11.6289C3.25 11.9273 3.36853 12.2134 3.5795 12.4244C3.79048 12.6354 4.07663 12.7539 4.375 12.7539H20.125C20.4234 12.7539 20.7095 12.6354 20.9205 12.4244C21.1315 12.2134 21.25 11.9273 21.25 11.6289C21.25 11.3305 21.1315 11.0444 20.9205 10.8334C20.7095 10.6224 20.4234 10.5039 20.125 10.5039H4.375Z" fill="black"/>
</svg>
