<svg width="25" height="24" viewBox="0 0 25 24" fill="none" xmlns="http://www.w3.org/2000/svg">
<path fill-rule="evenodd" clip-rule="evenodd" d="M15.7794 4.44521C16.1027 3.8542 16.9519 3.8542 17.2752 4.44521L17.9546 5.68727C18.0954 5.9448 18.3071 6.15654 18.5647 6.29738L19.8067 6.97672C20.3978 7.30003 20.3978 8.14921 19.8067 8.47251L18.5647 9.15185C18.3071 9.29269 18.0954 9.50443 17.9546 9.76196L17.2752 11.004C16.9519 11.595 16.1027 11.595 15.7794 11.004L15.1001 9.76196C14.9592 9.50443 14.7475 9.29269 14.49 9.15185L13.2479 8.47251C12.6569 8.14921 12.6569 7.30003 13.2479 6.97672L14.49 6.29738C14.7475 6.15654 14.9592 5.9448 15.1001 5.68727L15.7794 4.44521ZM13.7639 5.52834L12.7572 6.07912C11.4561 6.79052 11.4561 8.65871 12.7572 9.37011L13.9992 10.0495C14.085 10.0964 14.1555 10.1669 14.2025 10.2527L14.8818 11.4948C15.2672 12.1997 15.9922 12.5226 16.6893 12.4633C16.3552 13.8287 15.5746 15.0433 14.4716 15.9146C14.4143 16.1186 14.3545 16.3219 14.2922 16.5244C14.1319 17.0475 13.6868 17.4482 13.1149 17.5079C12.6194 17.5594 11.8002 17.6147 10.5592 17.6147C9.31815 17.6147 8.49898 17.5594 8.00345 17.5079C7.43153 17.4482 6.98682 17.0475 6.82619 16.5244C6.76387 16.3219 6.70407 16.1186 6.64681 15.9146C5.18785 14.7598 4.25 12.9715 4.25 10.9645C4.25 7.48009 7.07481 4.65529 10.5592 4.65529C11.7289 4.65529 12.8247 4.97382 13.7639 5.52834ZM7.64229 18.3104C7.73096 18.3308 7.82168 18.346 7.91444 18.3557C8.44373 18.411 9.29291 18.4672 10.5588 18.4672C11.8248 18.4672 12.6736 18.411 13.2032 18.3557C13.3246 18.3431 13.4447 18.3206 13.5624 18.2885L13.5514 18.3909C13.4713 19.1292 12.942 19.7983 12.1317 19.9051C11.61 19.971 11.0847 20.0033 10.5588 20.0019C9.887 20.0019 9.36555 19.9535 8.98257 19.8955C8.27765 19.7888 7.81349 19.2288 7.69584 18.6006C7.67878 18.5099 7.66094 18.4129 7.64229 18.3104Z" fill="black"/>
</svg>
