<svg width="25" height="24" viewBox="0 0 25 24" fill="none" xmlns="http://www.w3.org/2000/svg">
<path d="M11.99 12.9771C11.4033 12.9771 10.9233 12.4971 10.9233 11.9104C10.9233 11.3237 11.4033 10.8438 11.99 10.8438C12.5767 10.8438 13.0567 11.3237 13.0567 11.9104C13.0567 12.4971 12.5767 12.9771 11.99 12.9771Z" fill="black"/>
<path d="M12.2499 16.6712C13.4876 16.6712 14.6746 16.1796 15.5497 15.3044C16.4249 14.4292 16.9166 13.2422 16.9166 12.0046C16.9166 10.7669 16.4249 9.5799 15.5497 8.70473C14.6746 7.82956 13.4876 7.33789 12.2499 7.33789C11.0122 7.33789 9.82526 7.82956 8.95009 8.70473C8.07492 9.5799 7.58325 10.7669 7.58325 12.0046C7.58325 13.2422 8.07492 14.4292 8.95009 15.3044C9.82526 16.1796 11.0122 16.6712 12.2499 16.6712ZM12.2499 9.00456C13.8833 9.02456 15.2099 10.3912 15.2099 12.0379V12.5779C15.2099 13.1712 14.7233 13.6579 14.1299 13.6579C13.7233 13.6579 13.3699 13.4312 13.1833 13.0979C12.8766 13.4046 12.4499 13.5979 11.9833 13.5979C11.0499 13.5979 10.2899 12.8379 10.2899 11.9046C10.2899 10.9712 11.0499 10.2112 11.9833 10.2112C12.3899 10.2112 12.7566 10.3579 13.0499 10.5912V10.5312C13.0499 10.3579 13.2033 10.2179 13.3766 10.2179C13.5499 10.2179 13.6899 10.3579 13.6899 10.5312V12.5846C13.6899 12.703 13.737 12.8166 13.8207 12.9004C13.9045 12.9842 14.0181 13.0312 14.1366 13.0312C14.255 13.0312 14.3687 12.9842 14.4524 12.9004C14.5362 12.8166 14.5833 12.703 14.5833 12.5846V12.0446C14.5833 10.7312 13.5299 9.65122 12.2433 9.63122C11.6033 9.63122 10.9966 9.87122 10.5433 10.3179C10.0899 10.7646 9.83659 11.3646 9.83659 12.0046C9.83659 13.3112 10.9033 14.3779 12.2099 14.3779C12.293 14.3779 12.3727 14.4109 12.4315 14.4697C12.4902 14.5284 12.5233 14.6081 12.5233 14.6912C12.5233 14.7743 12.4902 14.854 12.4315 14.9128C12.3727 14.9715 12.293 15.0046 12.2099 15.0046C10.5566 15.0046 9.20992 13.6579 9.20992 12.0046C9.20992 11.1979 9.52325 10.4379 10.1033 9.87122C10.6766 9.29789 11.4433 8.99122 12.2499 9.00456Z" fill="black"/>
<path d="M2.25 6.0109C2.25 5.26957 2.84867 4.6709 3.59 4.6709H20.9167C21.656 4.6709 22.25 5.27357 22.25 6.0109V18.0042C22.25 18.7436 21.6473 19.3376 20.91 19.3376H3.59C3.41396 19.3378 3.23959 19.3033 3.07689 19.2361C2.9142 19.1688 2.76637 19.0702 2.64189 18.9457C2.51741 18.8212 2.41871 18.6734 2.35147 18.5107C2.28422 18.348 2.24974 18.1736 2.25 17.9976V6.0109ZM3.58333 6.00757V6.3389L7.81667 9.03623C7.56664 9.40869 7.3646 9.8112 7.21533 10.2342L3.58333 7.91956V16.4576L7.33 14.0702C7.503 14.4817 7.72697 14.8699 7.99667 15.2256L3.63667 18.0042H20.8733L16.502 15.2222C16.7718 14.8661 16.9958 14.4775 17.1687 14.0656L20.9167 16.4516V7.92423L17.282 10.2376C17.1332 9.81437 16.9316 9.41163 16.682 9.0389L20.9167 6.3449V6.00623L20.914 6.00423H3.58667L3.58467 6.00556L3.58333 6.00757Z" fill="black"/>
</svg>
