<svg version="1.1" id="Layer_1" xmlns="http://www.w3.org/2000/svg" x="0" y="0" viewBox="0 0 38 46" xml:space="preserve"><g fill="#353B55"><path d="M30 3c-2-1-6.1-2-10.9-2-4.8 0-8.9 1-10.9 2C3.8 5.2 1 10.1 1 15v12.7c0 2.1.8 4.2 2.2 5.8L8 38h3l-6.1-6C3.8 30.8 3 29.6 3 28V15c2.3-.6 8.2-2 16-2 7.8 0 13.7 1.4 16 2v13c0 1.5-.6 2.8-1.5 3.9L28 38h3l4.2-4.6C36.5 31.8 37 30 37 28V15c0-4.9-2.6-9.8-7-12zM24 40h5v5h-5zM16 40h6v5h-6zM9 40h5v5H9zM4 40h3v5H4zM31 40h3v5h-3z"/></g><g fill="#EF4137"><path d="M33 29V18C23.2 29.3 7.4 28.1 5 27c0 .6-.1 1.6 0 2h28zM30 33l-21 .1 2 1.9h17zM6 30l2 2h22l2-2H6zM12 36l1 2h13l1-2z"/></g></svg>